<?xml version="1.0" encoding="utf-8"?>
<!-- Generator: Adobe Illustrator 27.5.0, SVG Export Plug-In . SVG Version: 6.00 Build 0)  -->
<svg version="1.1" id="Capa_1" xmlns="http://www.w3.org/2000/svg" xmlns:xlink="http://www.w3.org/1999/xlink" x="0px" y="0px"
	 viewBox="0 0 425.2 425.2" style="enable-background:new 0 0 425.2 425.2;" xml:space="preserve">
<rect x="0.002" y="0.002" style="fill:#30AEB4;" width="425.197" height="425.197"/>
<g>
	
		<ellipse transform="matrix(0.0135 -0.9999 0.9999 0.0135 -29.8616 190.9392)" style="fill:#999B9E;" cx="81.837" cy="110.604" rx="55.621" ry="55.622"/>
	<g>
		<path style="fill:#FBB040;" d="M145.385,109.666c0,29.556-23.959,53.515-53.514,53.515c-29.555,0-53.515-23.959-53.515-53.515
			c0-29.555,23.96-53.514,53.515-53.514C121.426,56.152,145.385,80.111,145.385,109.666z"/>
		<g>
			<path style="fill:#D79837;" d="M91.871,165.288c-30.669,0-55.622-24.952-55.622-55.622c0-30.67,24.953-55.621,55.622-55.621
				c30.67,0,55.622,24.951,55.622,55.621C147.493,140.336,122.541,165.288,91.871,165.288z M91.871,58.259
				c-28.346,0-51.407,23.061-51.407,51.407s23.061,51.407,51.407,51.407c28.345,0,51.407-23.062,51.407-51.407
				S120.216,58.259,91.871,58.259z"/>
		</g>
		<path style="fill:#DB9A38;" d="M131.265,109.666c0,21.759-17.637,39.395-39.394,39.395c-21.758,0-39.396-17.637-39.396-39.395
			c0-21.755,17.638-39.395,39.396-39.395C113.628,70.271,131.265,87.911,131.265,109.666z"/>
		<path style="fill:#FFF200;" d="M92.162,76.316c-4.771,4.775-7.8,11.039-7.796,18.229c0.005,10.638,5.171,21.864,15.726,25.723
			c8.695,3.179,17.481,1.81,23.848-4.467c0.893-2.87,1.375-5.919,1.375-9.083c0-16.857-13.665-30.521-30.523-30.521
			C93.906,76.197,93.03,76.242,92.162,76.316z"/>
		<path style="fill:#E6E7E8;" d="M93.569,130.818c-13.758-7.186-21.49-22.653-20.597-38.024c0.451-7.748,2.945-14.767,7.039-20.704
			c-15.962,5.035-27.536,19.95-27.536,37.575c0,21.759,17.638,39.395,39.396,39.395c13.67,0,25.71-6.966,32.775-17.539
			C115.021,136.21,103.457,135.98,93.569,130.818z"/>
		<g>
			<path style="fill:#BCBEC0;" d="M110.929,97.148H97.876v-2.166c0-2.304-0.151-3.811-0.452-4.522
				c-0.303-0.711-0.949-1.066-1.939-1.066c-0.797,0-1.395,0.308-1.792,0.921c-0.399,0.613-0.598,1.535-0.598,2.764
				c0,2.045,0.408,3.477,1.227,4.298c0.795,0.817,3.146,2.411,7.043,4.779c3.317,2.003,5.579,3.539,6.787,4.606
				c1.205,1.064,2.224,2.572,3.052,4.522c0.829,1.949,1.245,4.378,1.245,7.286c0,4.652-1.122,8.306-3.361,10.952
				c-2.241,2.649-5.601,4.287-10.08,4.912v4.911h-6.01v-5.072c-3.489-0.346-6.537-1.686-9.143-4.024
				c-2.607-2.337-3.909-6.413-3.909-12.228v-2.552h13.052v3.197c0,3.512,0.135,5.691,0.404,6.543
				c0.27,0.852,0.921,1.275,1.955,1.275c0.883,0,1.541-0.297,1.971-0.887c0.432-0.593,0.646-1.471,0.646-2.635
				c0-2.928-0.202-5.023-0.612-6.284c-0.409-1.261-1.81-2.632-4.202-4.12c-3.985-2.497-6.693-4.333-8.125-5.508
				c-1.433-1.173-2.671-2.826-3.715-4.96c-1.045-2.132-1.567-4.544-1.567-7.236c0-3.899,1.103-6.957,3.311-9.177
				c2.208-2.218,5.52-3.587,9.935-4.103v-4.168h6.01v4.168c4.027,0.517,7.043,1.869,9.047,4.055
				c2.003,2.188,3.004,5.208,3.004,9.063C111.057,95.23,111.014,96.049,110.929,97.148z"/>
		</g>
		<g>
			<path style="fill:#FFF200;" d="M106.702,95.94H93.647v-2.167c0-2.304-0.151-3.813-0.452-4.522
				c-0.302-0.712-0.947-1.066-1.938-1.066c-0.797,0-1.396,0.307-1.792,0.921c-0.399,0.613-0.599,1.535-0.599,2.762
				c0,2.049,0.408,3.479,1.228,4.298c0.797,0.818,3.145,2.413,7.044,4.781c3.316,2.004,5.578,3.538,6.785,4.604
				c1.206,1.067,2.224,2.575,3.053,4.523c0.829,1.951,1.243,4.379,1.243,7.288c0,4.653-1.119,8.304-3.359,10.953
				c-2.239,2.649-5.601,4.286-10.08,4.911v4.911h-6.01v-5.073c-3.489-0.344-6.537-1.684-9.143-4.022
				c-2.606-2.337-3.91-6.413-3.91-12.229v-2.552h13.053v3.198c0,3.513,0.133,5.691,0.404,6.542c0.269,0.852,0.921,1.276,1.955,1.276
				c0.882,0,1.54-0.294,1.971-0.888c0.431-0.593,0.646-1.47,0.646-2.634c0-2.931-0.206-5.024-0.613-6.284
				c-0.41-1.261-1.81-2.634-4.202-4.12c-3.985-2.497-6.693-4.333-8.126-5.508c-1.434-1.173-2.67-2.828-3.716-4.96
				c-1.045-2.132-1.566-4.543-1.566-7.237c0-3.898,1.104-6.956,3.311-9.175c2.209-2.219,5.521-3.589,9.936-4.105v-4.168h6.01v4.168
				c4.028,0.516,7.042,1.869,9.046,4.055c2.004,2.188,3.005,5.207,3.005,9.063C106.83,94.021,106.787,94.84,106.702,95.94z"/>
		</g>
	</g>
</g>
<g>
	<circle style="fill:#999B9E;" cx="207.527" cy="222.573" r="64.745"/>
	<g>
		<path style="fill:#FBB040;" d="M281.498,221.482c0,34.403-27.889,62.292-62.291,62.292c-34.402,0-62.293-27.889-62.293-62.292
			c0-34.402,27.891-62.291,62.293-62.291C253.609,159.191,281.498,187.08,281.498,221.482z"/>
		<g>
			<path style="fill:#D79837;" d="M219.207,286.228c-35.7,0-64.745-29.045-64.745-64.745s29.045-64.744,64.745-64.744
				s64.745,29.044,64.745,64.744S254.907,286.228,219.207,286.228z M219.207,161.644c-32.996,0-59.839,26.844-59.839,59.839
				c0,32.994,26.843,59.839,59.839,59.839c32.994,0,59.838-26.845,59.838-59.839C279.045,188.487,252.201,161.644,219.207,161.644z"
				/>
		</g>
		<path style="fill:#DB9A38;" d="M265.063,221.482c0,25.327-20.529,45.856-45.855,45.856c-25.327,0-45.858-20.529-45.858-45.856
			c0-25.323,20.53-45.856,45.858-45.856C244.533,175.626,265.063,196.159,265.063,221.482z"/>
		<path style="fill:#FFF200;" d="M219.546,182.663c-5.553,5.559-9.08,12.85-9.075,21.219c0.006,12.383,6.02,25.451,18.305,29.941
			c10.122,3.7,20.349,2.106,27.76-5.199c1.04-3.341,1.6-6.89,1.6-10.572c0-19.621-15.907-35.527-35.53-35.527
			C221.575,182.524,220.556,182.576,219.546,182.663z"/>
		<path style="fill:#E6E7E8;" d="M221.183,246.104c-16.014-8.363-25.015-26.368-23.975-44.26c0.525-9.019,3.429-17.188,8.194-24.1
			c-18.58,5.86-32.052,23.223-32.052,43.738c0,25.327,20.53,45.856,45.858,45.856c15.912,0,29.927-8.107,38.151-20.415
			C246.154,252.38,232.692,252.113,221.183,246.104z"/>
		<g>
			<path style="fill:#BCBEC0;" d="M241.391,206.911h-15.194v-2.521c0-2.682-0.176-4.436-0.526-5.265
				c-0.352-0.828-1.105-1.241-2.257-1.241c-0.928,0-1.624,0.357-2.087,1.072c-0.464,0.714-0.695,1.786-0.695,3.217
				c0,2.38,0.475,4.047,1.428,5.002c0.926,0.952,3.662,2.807,8.198,5.564c3.861,2.331,6.494,4.12,7.9,5.361
				c1.402,1.239,2.588,2.994,3.553,5.264c0.965,2.27,1.449,5.097,1.449,8.481c0,5.415-1.306,9.668-3.913,12.749
				c-2.608,3.084-6.52,4.99-11.734,5.717v5.717h-6.996v-5.904c-4.062-0.402-7.609-1.962-10.643-4.683
				c-3.034-2.721-4.549-7.466-4.549-14.234v-2.971h15.192v3.722c0,4.088,0.157,6.625,0.47,7.616
				c0.314,0.991,1.073,1.485,2.276,1.485c1.028,0,1.794-0.346,2.294-1.033c0.502-0.689,0.751-1.711,0.751-3.066
				c0-3.408-0.236-5.848-0.713-7.316c-0.476-1.467-2.107-3.063-4.891-4.795c-4.639-2.907-7.791-5.044-9.457-6.412
				c-1.668-1.365-3.109-3.289-4.325-5.773c-1.217-2.481-1.824-5.289-1.824-8.423c0-4.539,1.284-8.098,3.854-10.682
				c2.569-2.582,6.425-4.176,11.564-4.776v-4.852h6.996v4.852c4.688,0.601,8.198,2.176,10.531,4.72
				c2.331,2.547,3.497,6.062,3.497,10.548C241.54,204.679,241.49,205.632,241.391,206.911z"/>
		</g>
		<g>
			<path style="fill:#FFF200;" d="M236.47,205.505h-15.195v-2.521c0-2.682-0.177-4.439-0.527-5.265
				c-0.351-0.829-1.102-1.241-2.255-1.241c-0.928,0-1.624,0.356-2.087,1.072c-0.464,0.714-0.696,1.786-0.696,3.214
				c0,2.385,0.475,4.05,1.429,5.003c0.928,0.953,3.66,2.809,8.199,5.565c3.86,2.333,6.493,4.118,7.898,5.358
				c1.403,1.242,2.588,2.998,3.553,5.265c0.965,2.271,1.447,5.097,1.447,8.483c0,5.416-1.303,9.666-3.911,12.75
				c-2.606,3.084-6.519,4.988-11.733,5.716v5.717h-6.996v-5.905c-4.062-0.4-7.609-1.96-10.643-4.682
				c-3.034-2.721-4.552-7.466-4.552-14.236v-2.97h15.194v3.723c0,4.089,0.155,6.625,0.47,7.615c0.313,0.991,1.072,1.486,2.276,1.486
				c1.026,0,1.792-0.343,2.294-1.034c0.501-0.689,0.752-1.711,0.752-3.065c0-3.411-0.239-5.849-0.714-7.315
				c-0.477-1.467-2.107-3.065-4.891-4.795c-4.639-2.907-7.791-5.044-9.458-6.412c-1.669-1.365-3.108-3.291-4.326-5.773
				c-1.217-2.481-1.823-5.288-1.823-8.424c0-4.538,1.285-8.098,3.855-10.68c2.571-2.583,6.425-4.178,11.565-4.777v-4.852h6.996
				v4.852c4.689,0.6,8.197,2.176,10.529,4.72c2.333,2.546,3.499,6.061,3.499,10.548C236.62,203.271,236.569,204.225,236.47,205.505z
				"/>
		</g>
	</g>
</g>
<g>
	<g>
		<g>
			<path style="fill:#EFB499;" d="M363.912,258.248c0.578,1.839,23.755,32.109,23.755,32.109l-10.203,9.29l-39.827,36.266
				c-8.685-12.351-27.265-10.649-27.265-10.649c-38.76-1.319-66.233-38.819-66.233-38.819l-0.036-143.955l70.364,74.351
				l29.877,3.127C344.345,219.967,359.126,243.004,363.912,258.248z"/>
		</g>
	</g>
	<g>
		<g>
			<g>
				<rect x="128.098" y="93.483" style="fill:#A7A9AC;" width="173.172" height="226.532"/>
			</g>
			<g>
				<rect x="136.714" y="84.385" style="fill:#FFFFFF;" width="173.172" height="226.531"/>
				<g>
					<g>
						<path style="fill:#3E4955;" d="M199.855,100.563v5.086h-3.925v20.331h-6.609v-20.331h-3.909v-5.086H199.855z"/>
						<path style="fill:#3E4955;" d="M211.499,100.563l3.78,25.417h-6.755l-0.355-4.568h-2.364l-0.397,4.568h-6.833l3.372-25.417
							H211.499z M207.997,116.905c-0.335-2.879-0.67-6.438-1.007-10.676c-0.673,4.867-1.096,8.426-1.269,10.676H207.997z"/>
						<path style="fill:#3E4955;" d="M230.602,100.563l-2.324,11.24l3.501,14.177h-6.122c-0.732-2.534-1.402-5.622-2.01-9.263
							c-0.166,1.613-0.398,3.319-0.697,5.118l-0.622,4.145h-6.437l2.402-14.177l-2.402-11.24h6.39
							c0.116,0.699,0.346,1.866,0.689,3.499c0.277,1.245,0.503,2.392,0.677,3.439l1.413-6.938H230.602z"/>
						<path style="fill:#3E4955;" d="M232.713,100.563h11.021v5.086h-4.412v4.82h4.129v4.835h-4.129v5.589h4.851v5.087h-11.461
							V100.563z"/>
						<path style="fill:#3E4955;" d="M260.078,108.255h-6.139v-1.884c0-0.88-0.079-1.439-0.235-1.68
							c-0.157-0.241-0.419-0.361-0.785-0.361c-0.398,0-0.698,0.162-0.902,0.487c-0.204,0.324-0.306,0.816-0.306,1.477
							c0,0.849,0.114,1.487,0.344,1.916c0.219,0.43,0.842,0.948,1.868,1.555c2.942,1.746,4.795,3.179,5.559,4.299
							c0.764,1.12,1.146,2.926,1.146,5.416c0,1.812-0.212,3.146-0.636,4.004c-0.424,0.858-1.243,1.578-2.457,2.158
							c-1.214,0.581-2.627,0.872-4.239,0.872c-1.769,0-3.279-0.336-4.529-1.005c-1.251-0.67-2.07-1.523-2.457-2.56
							c-0.387-1.036-0.581-2.506-0.581-4.411v-1.664h6.139v3.093c0,0.952,0.087,1.565,0.259,1.837
							c0.172,0.272,0.479,0.408,0.918,0.408c0.439,0,0.766-0.173,0.981-0.519c0.214-0.345,0.322-0.857,0.322-1.538
							c0-1.497-0.204-2.476-0.612-2.936c-0.418-0.46-1.45-1.229-3.093-2.308c-1.643-1.088-2.731-1.878-3.266-2.37
							c-0.534-0.492-0.976-1.172-1.326-2.041c-0.351-0.869-0.526-1.979-0.526-3.328c0-1.947,0.249-3.37,0.746-4.271
							c0.497-0.9,1.3-1.604,2.41-2.111c1.109-0.508,2.449-0.762,4.019-0.762c1.716,0,3.179,0.277,4.388,0.832
							c1.209,0.555,2.009,1.254,2.402,2.096c0.393,0.843,0.589,2.274,0.589,4.294V108.255z"/>
					</g>
					<rect x="145.33" y="129.993" style="fill:#3E4955;" width="155.94" height="4.925"/>
					<rect x="145.33" y="141.47" style="fill:#BCBEC0;" width="155.94" height="4.926"/>
					<rect x="145.33" y="153.228" style="fill:#BCBEC0;" width="155.94" height="4.925"/>
					<rect x="145.33" y="164.984" style="fill:#BCBEC0;" width="155.94" height="4.925"/>
					<rect x="145.33" y="176.742" style="fill:#BCBEC0;" width="155.94" height="4.925"/>
					<rect x="145.33" y="188.501" style="fill:#BCBEC0;" width="89.87" height="4.923"/>
					<g>
						<rect x="145.331" y="216.648" style="fill:#BCBEC0;" width="1.772" height="61.006"/>
						<rect x="172.327" y="216.648" style="fill:#BCBEC0;" width="1.768" height="61.006"/>
						<rect x="199.321" y="216.648" style="fill:#BCBEC0;" width="1.77" height="61.006"/>
						<rect x="226.316" y="216.648" style="fill:#BCBEC0;" width="1.77" height="61.006"/>
						<rect x="253.31" y="216.648" style="fill:#BCBEC0;" width="1.77" height="61.006"/>
						<rect x="299.5" y="216.648" style="fill:#BCBEC0;" width="1.77" height="61.006"/>
						<g>
							<rect x="145.33" y="216.648" style="fill:#BCBEC0;" width="155.94" height="1.77"/>
							<rect x="145.33" y="228.495" style="fill:#BCBEC0;" width="155.94" height="1.769"/>
							<rect x="145.33" y="240.342" style="fill:#BCBEC0;" width="155.94" height="1.77"/>
							<rect x="145.33" y="252.189" style="fill:#BCBEC0;" width="155.94" height="1.77"/>
							<rect x="145.33" y="264.037" style="fill:#BCBEC0;" width="155.94" height="1.77"/>
							<rect x="145.33" y="275.884" style="fill:#BCBEC0;" width="155.94" height="1.77"/>
						</g>
					</g>
					<g>
						<rect x="145.33" y="284.307" style="fill:#BCBEC0;" width="155.94" height="1.77"/>
						<rect x="145.33" y="288.318" style="fill:#BCBEC0;" width="155.94" height="1.772"/>
						<rect x="145.33" y="292.332" style="fill:#BCBEC0;" width="155.94" height="1.771"/>
						<rect x="145.33" y="296.345" style="fill:#BCBEC0;" width="155.94" height="1.77"/>
					</g>
					<g>
						<rect x="145.33" y="196.955" style="fill:#BCBEC0;" width="155.94" height="1.77"/>
						<rect x="145.33" y="200.968" style="fill:#BCBEC0;" width="155.94" height="1.768"/>
						<rect x="145.33" y="204.98" style="fill:#BCBEC0;" width="155.94" height="1.77"/>
						<rect x="145.33" y="208.992" style="fill:#BCBEC0;" width="155.94" height="1.77"/>
					</g>
				</g>
			</g>
		</g>
	</g>
	<g>
		<g>
			<line style="fill:#FBBCA0;" x1="342.71" y1="216.98" x2="316.014" y2="229.914"/>
			<path style="fill:#FBBCA0;" d="M344.823,266.926c-27.173-7.115-27.961-34.502-27.961-34.502l-11.566-7.276
				c0,0-24.206,15.985-33.713-3.132l24.093-18.079c0,0,6.759-7.476,19.99-0.79l28.648,14.652c0,0,11.239,17.268,20.385,39.646
				l22.938,30.745l-9.109,8.294l-26.874-26.564L344.823,266.926"/>
			<path style="fill:#E5AC93;" d="M318.039,232.137l-12.738-10.139c0,0-22.236,14.679-32.453-0.932l-1.266,0.949
				c9.507,19.117,33.713,3.132,33.713,3.132l10.783,7.989c0,0,1.84,31.495,36.761,36.653
				C352.84,269.79,322.636,263.213,318.039,232.137z"/>
		</g>
		
			<rect x="306.021" y="293.077" transform="matrix(0.6956 -0.7184 0.7184 0.6956 -107.4279 343.6193)" style="fill:#A2CECD;" width="91.591" height="11.033"/>
		<polygon style="fill:#023F5B;" points="425.2,425.2 318.837,339.978 389.859,266.635 425.2,289.311 		"/>
	</g>
</g>
<g>
	<path style="fill:#2A333E;" d="M70.23,193.65v122.275c0,2.528,2.051,4.579,4.58,4.579h114.51c2.529,0,4.58-2.051,4.58-4.579V193.65
		H70.23z"/>
	<path style="opacity:0.5;fill:#FFFFFF;" d="M93.25,206.32c0.656,3.232,1.254,6.498,2.072,9.693
		c1.873,7.309,4.679,14.356,8.086,21.082c2.005,3.969,4.188,7.849,6.554,11.613c2.1,3.337,4.229,6.711,6.9,9.627
		c4.927,5.376,11.044,9.527,17.596,12.679c12.065,5.809,25.856,9.046,39.275,8.493c4.547-0.185,9.429-0.758,14.338-1.771v-79.33
		H92.397C92.195,201.043,92.734,203.787,93.25,206.32z"/>
	<path style="fill:#A7A9AC;" d="M126.976,289.402c-8.311-3.769-16.295-8.626-22.85-15.029c-7.189-7.023-12.469-16.009-17.253-24.772
		c-5.356-9.811-9.99-20.16-12.907-30.975c-1.317-4.878-2.304-9.873-3.259-14.835c-0.163-0.855-0.327-1.719-0.476-2.594v114.728
		c0,2.528,2.051,4.579,4.58,4.579h114.51c2.529,0,4.58-2.051,4.58-4.579v-18.684C171.57,301.766,147.746,298.82,126.976,289.402z"/>
	<path style="fill:#2A333E;" d="M194.174,193.65l5.439-43.203c0-2.702-2.234-4.892-4.99-4.892H69.878
		c-2.757,0-4.992,2.189-4.992,4.892l5.452,43.203H194.174z"/>
	<path style="opacity:0.5;fill:#FFFFFF;" d="M168.858,155.949c-11.643-1.235-23.421-0.042-35.01,1.217
		c-8.602,0.933-16.968,3.042-24.552,7.316c-7.023,3.957-13.216,9.373-17.938,15.924c-2.965,4.114-5.414,8.566-7.329,13.245h110.145
		l3.371-26.782C188.446,161.966,179.2,157.046,168.858,155.949z"/>
	<path style="fill:#A7A9AC;" d="M100.21,167.607c6.375-5.012,13.692-8.728,21.538-10.814c8.564-2.281,17.706-2.863,26.522-3.439
		c9.35-0.612,19.202-0.938,28.347,1.469c7.448,1.959,14.412,5.657,21.266,9.382l1.731-13.757c0-2.702-2.234-4.892-4.99-4.892H69.878
		c-2.757,0-4.992,2.189-4.992,4.892l5.452,43.203h11.034C85.365,183.572,91.642,174.346,100.21,167.607z"/>
	<path style="fill:#D1D3D4;" d="M183.277,182.58c0,2.53-2.051,4.581-4.582,4.581H85.117c-2.529,0-4.58-2.051-4.58-4.581
		l-3.061-25.955c0-2.529,2.05-4.579,4.58-4.579h100.387c2.529,0,4.579,2.05,4.579,4.579L183.277,182.58z"/>
	<path style="fill:#515254;" d="M179.803,180.489c0,1.91-1.549,3.461-3.46,3.461H87.788c-1.909,0-3.46-1.551-3.46-3.461
		l-2.312-21.771c0-1.912,1.55-3.46,3.46-3.46h93.695c1.913,0,3.462,1.548,3.462,3.46L179.803,180.489z"/>
	<path style="fill:#729989;" d="M178.912,180.585c0,1.858-1.505,3.365-3.363,3.365H88.596c-1.856,0-3.363-1.507-3.363-3.365
		l-2.248-20.468c0-1.858,1.506-3.364,3.365-3.364h91.951c1.857,0,3.363,1.506,3.363,3.364L178.912,180.585z"/>
	<g>
		<path style="fill:#D1D3D4;" d="M91.934,164.873v4.087l-1.291,1.291l-0.429-0.432v-5.592L91.934,164.873z M90.214,176.703v-5.593
			l0.429-0.43l1.291,1.291v4.086L90.214,176.703z M97.74,178.21h-6.451c-0.574-0.144-0.933-0.502-1.075-1.076l1.72-0.646h5.163
			L97.74,178.21z M97.096,164.443h-5.141l-1.721-0.646c0.143-0.573,0.501-0.932,1.076-1.075h6.43L97.096,164.443z M97.525,168.96
			v-4.517l0.645-1.721c0.574,0.143,0.933,0.502,1.077,1.075v6.021l-0.431,0.432L97.525,168.96z M98.816,170.681l0.431,0.43v6.023
			c-0.144,0.574-0.503,0.933-1.077,1.076l-0.645-1.722v-4.517L98.816,170.681z"/>
		<path style="fill:#D1D3D4;" d="M101.398,170.251l-0.43-0.432v-4.946l1.076-1.075l0.644,0.646v4.517L101.398,170.251z
			 M102.688,171.972v4.517l-0.644,0.646l-1.076-1.076v-4.947l0.43-0.43L102.688,171.972z M107.851,164.443h-4.733l-0.86-0.861
			l0.86-0.859h4.733l0.862,0.859L107.851,164.443z M108.713,177.35l-0.862,0.86h-4.733l-0.86-0.86l0.86-0.861h4.733L108.713,177.35z
			 M108.281,168.96v-4.517l0.646-0.646l1.075,1.075v4.946l-0.43,0.432L108.281,168.96z M109.572,170.681l0.43,0.43v4.947
			l-1.075,1.076l-0.646-0.646v-4.517L109.572,170.681z"/>
		<path style="fill:#D1D3D4;" d="M112.153,170.251l-0.43-0.432v-4.946l1.074-1.075l0.646,0.646v4.517L112.153,170.251z
			 M113.443,171.972v4.517l-0.646,0.646l-1.074-1.076v-4.947l0.43-0.43L113.443,171.972z M118.605,164.443h-4.733l-0.86-0.861
			l0.86-0.859h4.733l0.861,0.859L118.605,164.443z M119.466,177.35l-0.861,0.86h-4.733l-0.86-0.86l0.86-0.861h4.733L119.466,177.35z
			 M119.036,168.96v-4.517l0.646-0.646l1.076,1.075v4.946l-0.43,0.432L119.036,168.96z M120.327,170.681l0.43,0.43v4.947
			l-1.076,1.076l-0.646-0.646v-4.517L120.327,170.681z"/>
		<path style="fill:#D1D3D4;" d="M124.199,164.873v4.087l-1.291,1.291l-0.431-0.432v-5.592L124.199,164.873z M122.477,176.703
			v-5.593l0.431-0.43l1.291,1.291v4.086L122.477,176.703z M130.006,178.21h-6.453c-0.574-0.144-0.932-0.502-1.076-1.076l1.722-0.646
			h5.163L130.006,178.21z M129.362,164.443h-5.141l-1.721-0.646c0.143-0.573,0.5-0.932,1.074-1.075h6.432L129.362,164.443z
			 M129.79,168.96v-4.517l0.646-1.721c0.573,0.143,0.931,0.502,1.075,1.075v6.021l-0.43,0.432L129.79,168.96z M131.081,170.681
			l0.43,0.43v6.023c-0.144,0.574-0.502,0.933-1.075,1.076l-0.646-1.722v-4.517L131.081,170.681z"/>
		<path style="fill:#D1D3D4;" d="M134.953,164.873v4.087l-1.29,1.291l-0.432-0.432v-5.592L134.953,164.873z M133.232,176.703v-5.593
			l0.432-0.43l1.29,1.291v4.086L133.232,176.703z M140.761,178.21h-6.454c-0.574-0.144-0.932-0.502-1.076-1.076l1.721-0.646h5.163
			L140.761,178.21z M140.116,164.443h-5.143l-1.719-0.646c0.143-0.573,0.502-0.932,1.075-1.075h6.432L140.116,164.443z
			 M140.546,168.96v-4.517l0.645-1.721c0.572,0.143,0.93,0.502,1.074,1.075v6.021l-0.43,0.432L140.546,168.96z M141.836,170.681
			l0.43,0.43v6.023c-0.144,0.574-0.502,0.933-1.074,1.076l-0.645-1.722v-4.517L141.836,170.681z"/>
		<path style="fill:#D1D3D4;" d="M145.709,164.873v4.087l-1.29,1.291l-0.431-0.432v-5.592L145.709,164.873z M143.987,176.703v-5.593
			l0.431-0.43l1.29,1.291v4.086L143.987,176.703z M151.516,178.21h-6.453c-0.574-0.144-0.932-0.502-1.075-1.076l1.722-0.646h5.161
			L151.516,178.21z M150.87,164.443h-5.14l-1.722-0.646c0.144-0.573,0.502-0.932,1.077-1.075h6.431L150.87,164.443z M151.3,168.96
			v-4.517l0.646-1.721c0.573,0.143,0.932,0.502,1.076,1.075v6.021l-0.432,0.432L151.3,168.96z M152.591,170.681l0.432,0.43v6.023
			c-0.144,0.574-0.503,0.933-1.076,1.076l-0.646-1.722v-4.517L152.591,170.681z"/>
		<path style="fill:#D1D3D4;" d="M156.463,164.873v4.087l-1.291,1.291l-0.432-0.432v-5.592L156.463,164.873z M154.74,176.703v-5.593
			l0.432-0.43l1.291,1.291v4.086L154.74,176.703z M162.271,178.21h-6.454c-0.574-0.144-0.933-0.502-1.077-1.076l1.723-0.646h5.164
			L162.271,178.21z M161.626,164.443h-5.143l-1.721-0.646c0.143-0.573,0.502-0.932,1.075-1.075h6.434L161.626,164.443z
			 M162.055,168.96v-4.517l0.646-1.721c0.572,0.143,0.931,0.502,1.076,1.075v6.021l-0.431,0.432L162.055,168.96z M163.346,170.681
			l0.431,0.43v6.023c-0.145,0.574-0.503,0.933-1.076,1.076l-0.646-1.722v-4.517L163.346,170.681z"/>
		<path style="fill:#D1D3D4;" d="M167.219,164.873v4.087l-1.291,1.291l-0.431-0.432v-5.592L167.219,164.873z M165.497,176.703
			v-5.593l0.431-0.43l1.291,1.291v4.086L165.497,176.703z M173.025,178.21h-6.453c-0.574-0.144-0.932-0.502-1.075-1.076l1.722-0.646
			h5.162L173.025,178.21z M172.381,164.443h-5.142l-1.721-0.646c0.143-0.573,0.502-0.932,1.076-1.075h6.431L172.381,164.443z
			 M172.811,168.96v-4.517l0.646-1.721c0.574,0.143,0.93,0.502,1.075,1.075v6.021l-0.431,0.432L172.811,168.96z M174.1,170.681
			l0.431,0.43v6.023c-0.145,0.574-0.501,0.933-1.075,1.076l-0.646-1.722v-4.517L174.1,170.681z"/>
	</g>
	<g>
		<rect x="82.017" y="194.795" width="41.216" height="12.979"/>
		<g>
			<rect x="91.589" y="194.795" style="fill:#414042;" width="0.765" height="12.979"/>
			<rect x="102.242" y="194.795" style="fill:#414042;" width="0.765" height="12.979"/>
			<rect x="112.896" y="194.795" style="fill:#414042;" width="0.763" height="12.979"/>
		</g>
	</g>
	<g>
		<g>
			<path style="fill:#939598;" d="M103.893,233.728c0,0.581-0.471,1.051-1.051,1.051H84.976c-0.58,0-1.051-0.47-1.051-1.051v-12.595
				c0-0.58,0.471-1.05,1.051-1.05h17.867c0.58,0,1.051,0.47,1.051,1.05V233.728z"/>
			<path style="fill:#BCBEC0;" d="M101.984,232.01c0,0.58-0.469,1.051-1.051,1.051H83.066c-0.578,0-1.049-0.471-1.049-1.051v-12.594
				c0-0.58,0.472-1.051,1.049-1.051h17.868c0.582,0,1.051,0.471,1.051,1.051V232.01z"/>
		</g>
		<g>
			<path style="fill:#939598;" d="M132.325,233.728c0,0.581-0.469,1.051-1.051,1.051h-17.865c-0.582,0-1.052-0.47-1.052-1.051
				v-12.595c0-0.58,0.47-1.05,1.052-1.05h17.865c0.582,0,1.051,0.47,1.051,1.05V233.728z"/>
			<path style="fill:#BCBEC0;" d="M130.417,232.01c0,0.58-0.471,1.051-1.052,1.051h-17.866c-0.58,0-1.051-0.471-1.051-1.051v-12.594
				c0-0.58,0.471-1.051,1.051-1.051h17.866c0.581,0,1.052,0.471,1.052,1.051V232.01z"/>
		</g>
		<g>
			<path style="fill:#939598;" d="M158.28,233.728c0,0.581-0.47,1.051-1.051,1.051h-17.867c-0.58,0-1.05-0.47-1.05-1.051v-12.595
				c0-0.58,0.47-1.05,1.05-1.05h17.867c0.581,0,1.051,0.47,1.051,1.05V233.728z"/>
			<path style="fill:#BCBEC0;" d="M156.371,232.01c0,0.58-0.47,1.051-1.05,1.051h-17.866c-0.581,0-1.051-0.471-1.051-1.051v-12.594
				c0-0.58,0.471-1.051,1.051-1.051h17.866c0.58,0,1.05,0.471,1.05,1.051V232.01z"/>
		</g>
		<g>
			<path style="fill:#939598;" d="M184.358,233.728c0,0.581-0.471,1.051-1.051,1.051H165.44c-0.58,0-1.05-0.47-1.05-1.051v-12.595
				c0-0.58,0.471-1.05,1.05-1.05h17.867c0.58,0,1.051,0.47,1.051,1.05V233.728z"/>
			<path style="fill:#EC524F;" d="M182.449,232.01c0,0.58-0.47,1.051-1.051,1.051h-17.865c-0.582,0-1.053-0.471-1.053-1.051v-12.594
				c0-0.58,0.471-1.051,1.053-1.051h17.865c0.581,0,1.051,0.471,1.051,1.051V232.01z"/>
		</g>
	</g>
	<g>
		<g>
			<path style="fill:#939598;" d="M103.893,256.495c0,0.581-0.471,1.051-1.051,1.051H84.976c-0.58,0-1.051-0.47-1.051-1.051v-12.593
				c0-0.58,0.471-1.051,1.051-1.051h17.867c0.58,0,1.051,0.471,1.051,1.051V256.495z"/>
			<path style="fill:#BCBEC0;" d="M101.984,254.778c0,0.58-0.469,1.051-1.051,1.051H83.066c-0.578,0-1.049-0.471-1.049-1.051
				v-12.594c0-0.581,0.472-1.052,1.049-1.052h17.868c0.582,0,1.051,0.471,1.051,1.052V254.778z"/>
		</g>
		<g>
			<path style="fill:#939598;" d="M132.325,256.495c0,0.581-0.469,1.051-1.051,1.051h-17.865c-0.582,0-1.052-0.47-1.052-1.051
				v-12.593c0-0.58,0.47-1.051,1.052-1.051h17.865c0.582,0,1.051,0.471,1.051,1.051V256.495z"/>
			<path style="fill:#BCBEC0;" d="M130.417,254.778c0,0.58-0.471,1.051-1.052,1.051h-17.866c-0.58,0-1.051-0.471-1.051-1.051
				v-12.594c0-0.581,0.471-1.052,1.051-1.052h17.866c0.581,0,1.052,0.471,1.052,1.052V254.778z"/>
		</g>
		<g>
			<path style="fill:#939598;" d="M158.28,256.495c0,0.581-0.47,1.051-1.051,1.051h-17.867c-0.58,0-1.05-0.47-1.05-1.051v-12.593
				c0-0.58,0.47-1.051,1.05-1.051h17.867c0.581,0,1.051,0.471,1.051,1.051V256.495z"/>
			<path style="fill:#BCBEC0;" d="M156.371,254.778c0,0.58-0.47,1.051-1.05,1.051h-17.866c-0.581,0-1.051-0.471-1.051-1.051v-12.594
				c0-0.581,0.471-1.052,1.051-1.052h17.866c0.58,0,1.05,0.471,1.05,1.052V254.778z"/>
		</g>
		<g>
			<path style="fill:#939598;" d="M184.358,256.495c0,0.581-0.471,1.051-1.051,1.051H165.44c-0.58,0-1.05-0.47-1.05-1.051v-12.593
				c0-0.58,0.471-1.051,1.05-1.051h17.867c0.58,0,1.051,0.471,1.051,1.051V256.495z"/>
			<path style="fill:#637182;" d="M182.449,254.778c0,0.58-0.47,1.051-1.051,1.051h-17.865c-0.582,0-1.053-0.471-1.053-1.051
				v-12.594c0-0.581,0.471-1.052,1.053-1.052h17.865c0.581,0,1.051,0.471,1.051,1.052V254.778z"/>
		</g>
	</g>
	<g>
		<g>
			<path style="fill:#939598;" d="M103.893,279.265c0,0.58-0.471,1.052-1.051,1.052H84.976c-0.58,0-1.051-0.472-1.051-1.052v-12.594
				c0-0.581,0.471-1.05,1.051-1.05h17.867c0.58,0,1.051,0.469,1.051,1.05V279.265z"/>
			<path style="fill:#BCBEC0;" d="M101.984,277.547c0,0.581-0.469,1.05-1.051,1.05H83.066c-0.578,0-1.049-0.469-1.049-1.05v-12.594
				c0-0.58,0.472-1.051,1.049-1.051h17.868c0.582,0,1.051,0.471,1.051,1.051V277.547z"/>
		</g>
		<g>
			<path style="fill:#939598;" d="M132.325,279.265c0,0.58-0.469,1.052-1.051,1.052h-17.865c-0.582,0-1.052-0.472-1.052-1.052
				v-12.594c0-0.581,0.47-1.05,1.052-1.05h17.865c0.582,0,1.051,0.469,1.051,1.05V279.265z"/>
			<path style="fill:#BCBEC0;" d="M130.417,277.547c0,0.581-0.471,1.05-1.052,1.05h-17.866c-0.58,0-1.051-0.469-1.051-1.05v-12.594
				c0-0.58,0.471-1.051,1.051-1.051h17.866c0.581,0,1.052,0.471,1.052,1.051V277.547z"/>
		</g>
		<g>
			<path style="fill:#939598;" d="M158.28,279.265c0,0.58-0.47,1.052-1.051,1.052h-17.867c-0.58,0-1.05-0.472-1.05-1.052v-12.594
				c0-0.581,0.47-1.05,1.05-1.05h17.867c0.581,0,1.051,0.469,1.051,1.05V279.265z"/>
			<path style="fill:#BCBEC0;" d="M156.371,277.547c0,0.581-0.47,1.05-1.05,1.05h-17.866c-0.581,0-1.051-0.469-1.051-1.05v-12.594
				c0-0.58,0.471-1.051,1.051-1.051h17.866c0.58,0,1.05,0.471,1.05,1.051V277.547z"/>
		</g>
		<g>
			<path style="fill:#939598;" d="M184.358,279.265c0,0.58-0.471,1.052-1.051,1.052H165.44c-0.58,0-1.05-0.472-1.05-1.052v-12.594
				c0-0.581,0.471-1.05,1.05-1.05h17.867c0.58,0,1.051,0.469,1.051,1.05V279.265z"/>
			<path style="fill:#637182;" d="M182.449,277.547c0,0.581-0.47,1.05-1.051,1.05h-17.865c-0.582,0-1.053-0.469-1.053-1.05v-12.594
				c0-0.58,0.471-1.051,1.053-1.051h17.865c0.581,0,1.051,0.471,1.051,1.051V277.547z"/>
		</g>
	</g>
	<g>
		<g>
			<path style="fill:#939598;" d="M103.893,302.034c0,0.58-0.471,1.051-1.051,1.051H84.976c-0.58,0-1.051-0.471-1.051-1.051V289.44
				c0-0.58,0.471-1.051,1.051-1.051h17.867c0.58,0,1.051,0.471,1.051,1.051V302.034z"/>
			<path style="fill:#BCBEC0;" d="M101.984,300.315c0,0.581-0.469,1.052-1.051,1.052H83.066c-0.578,0-1.049-0.471-1.049-1.052
				v-12.594c0-0.578,0.472-1.05,1.049-1.05h17.868c0.582,0,1.051,0.472,1.051,1.05V300.315z"/>
		</g>
		<g>
			<path style="fill:#939598;" d="M132.325,302.034c0,0.58-0.469,1.051-1.051,1.051h-17.865c-0.582,0-1.052-0.471-1.052-1.051
				V289.44c0-0.58,0.47-1.051,1.052-1.051h17.865c0.582,0,1.051,0.471,1.051,1.051V302.034z"/>
			<path style="fill:#BCBEC0;" d="M130.417,300.315c0,0.581-0.471,1.052-1.052,1.052h-17.866c-0.58,0-1.051-0.471-1.051-1.052
				v-12.594c0-0.578,0.471-1.05,1.051-1.05h17.866c0.581,0,1.052,0.472,1.052,1.05V300.315z"/>
		</g>
		<g>
			<path style="fill:#939598;" d="M158.28,302.034c0,0.58-0.47,1.051-1.051,1.051h-17.867c-0.58,0-1.05-0.471-1.05-1.051V289.44
				c0-0.58,0.47-1.051,1.05-1.051h17.867c0.581,0,1.051,0.471,1.051,1.051V302.034z"/>
			<path style="fill:#637182;" d="M156.371,300.315c0,0.581-0.47,1.052-1.05,1.052h-17.866c-0.581,0-1.051-0.471-1.051-1.052
				v-12.594c0-0.578,0.471-1.05,1.051-1.05h17.866c0.58,0,1.05,0.472,1.05,1.05V300.315z"/>
		</g>
		<g>
			<path style="fill:#939598;" d="M184.358,302.034c0,0.58-0.471,1.051-1.051,1.051H165.44c-0.58,0-1.05-0.471-1.05-1.051V289.44
				c0-0.58,0.471-1.051,1.05-1.051h17.867c0.58,0,1.051,0.471,1.051,1.051V302.034z"/>
			<path style="fill:#637182;" d="M182.449,300.315c0,0.581-0.47,1.052-1.051,1.052h-17.865c-0.582,0-1.053-0.471-1.053-1.052
				v-12.594c0-0.578,0.471-1.05,1.053-1.05h17.865c0.581,0,1.051,0.472,1.051,1.05V300.315z"/>
		</g>
	</g>
	<g>
		<path d="M93.991,221.308v2.087l-1.526,7.491h-2.378l1.701-7.857h-2.364v-1.722H93.991z"/>
	</g>
	<g>
		<path d="M122.299,224.977c0.351,0.142,0.621,0.354,0.811,0.636c0.189,0.282,0.284,0.954,0.284,2.016
			c0,0.773-0.075,1.344-0.225,1.711c-0.15,0.367-0.442,0.668-0.876,0.902c-0.434,0.235-1.016,0.353-1.746,0.353
			c-0.71,0-1.272-0.112-1.686-0.338c-0.414-0.225-0.711-0.523-0.89-0.894c-0.18-0.371-0.269-0.988-0.269-1.853
			c0-0.58,0.044-1.083,0.133-1.51c0.089-0.426,0.368-0.768,0.837-1.023c-0.296-0.142-0.518-0.368-0.666-0.677
			c-0.148-0.31-0.222-0.703-0.222-1.18c0-0.824,0.229-1.441,0.687-1.854c0.458-0.412,1.142-0.618,2.053-0.618
			c1.053,0,1.781,0.219,2.183,0.656c0.402,0.438,0.604,1.063,0.604,1.874c0,0.517-0.066,0.89-0.198,1.118
			C122.98,224.525,122.709,224.752,122.299,224.977z M121.003,226.902c0-0.367-0.038-0.61-0.112-0.732
			c-0.075-0.12-0.193-0.18-0.355-0.18c-0.158,0-0.271,0.058-0.34,0.174c-0.069,0.117-0.104,0.362-0.104,0.737v1.242
			c0,0.414,0.039,0.68,0.116,0.799c0.077,0.118,0.198,0.177,0.364,0.177c0.169,0,0.284-0.06,0.343-0.18
			c0.059-0.121,0.088-0.392,0.088-0.813V226.902z M120.956,222.921c0-0.323-0.028-0.538-0.085-0.643
			c-0.057-0.105-0.167-0.156-0.329-0.156c-0.158,0-0.264,0.056-0.319,0.168c-0.055,0.113-0.083,0.323-0.083,0.631v0.728
			c0,0.288,0.032,0.487,0.095,0.598c0.063,0.11,0.169,0.165,0.32,0.165c0.158,0,0.264-0.054,0.319-0.162
			c0.055-0.108,0.082-0.333,0.082-0.672V222.921z"/>
	</g>
	<g>
		<path d="M143.693,227.866h2.39c0,0.446,0.006,0.727,0.018,0.843c0.012,0.117,0.06,0.214,0.145,0.293
			c0.085,0.079,0.2,0.118,0.346,0.118c0.122,0,0.223-0.037,0.302-0.112c0.079-0.074,0.123-0.171,0.133-0.29
			c0.01-0.118,0.015-0.357,0.015-0.716v-1.526c-0.118,0.257-0.296,0.449-0.532,0.577c-0.237,0.128-0.531,0.192-0.882,0.192
			c-0.438,0-0.824-0.118-1.159-0.355c-0.335-0.237-0.548-0.521-0.639-0.852c-0.091-0.331-0.136-0.778-0.136-1.343v-0.763
			c0-0.671,0.027-1.17,0.08-1.497c0.053-0.327,0.19-0.63,0.411-0.908c0.221-0.278,0.526-0.494,0.917-0.648
			c0.391-0.154,0.844-0.231,1.361-0.231c0.639,0,1.163,0.089,1.573,0.267c0.41,0.178,0.728,0.433,0.953,0.766
			c0.225,0.334,0.355,0.684,0.391,1.051c0.035,0.366,0.053,1.076,0.053,2.13v1.331c0,1.14-0.016,1.901-0.047,2.286
			c-0.032,0.385-0.169,0.748-0.411,1.092c-0.243,0.343-0.571,0.601-0.985,0.771c-0.415,0.172-0.894,0.258-1.438,0.258
			c-0.674,0-1.226-0.108-1.653-0.325c-0.428-0.217-0.736-0.522-0.923-0.917C143.787,228.963,143.693,228.466,143.693,227.866z
			 M146.083,224.879c0,0.402,0.052,0.65,0.157,0.745c0.105,0.095,0.212,0.142,0.323,0.142c0.165,0,0.287-0.059,0.364-0.18
			c0.077-0.12,0.115-0.356,0.115-0.707v-1.733c0-0.422-0.037-0.698-0.109-0.828c-0.073-0.131-0.194-0.195-0.364-0.195
			c-0.103,0-0.209,0.05-0.32,0.15c-0.11,0.101-0.165,0.372-0.165,0.813V224.879z"/>
	</g>
	<g>
		<path d="M94.653,243.98v6.259h0.68v1.633h-0.68v1.687h-2.39v-1.687h-2.84v-1.633l2.065-6.259H94.653z M92.263,250.238v-4.075
			l-1.056,4.075H92.263z"/>
	</g>
	<g>
		<path d="M93.464,266.729v9.578h-2.39v-5.135c0-0.742-0.018-1.188-0.053-1.337c-0.036-0.15-0.133-0.264-0.293-0.341
			c-0.16-0.077-0.516-0.115-1.068-0.115h-0.237v-1.116c1.156-0.249,2.033-0.76,2.633-1.534H93.464z"/>
	</g>
	<g>
		<path d="M95.416,292.492v3.194c0,0.726-0.039,1.255-0.118,1.586c-0.079,0.331-0.243,0.641-0.491,0.929
			c-0.249,0.288-0.548,0.495-0.899,0.621c-0.351,0.126-0.743,0.189-1.177,0.189c-0.572,0-1.047-0.066-1.426-0.198
			c-0.378-0.132-0.68-0.338-0.905-0.618c-0.225-0.28-0.385-0.575-0.479-0.885c-0.095-0.31-0.142-0.802-0.142-1.476v-3.343
			c0-0.88,0.076-1.538,0.228-1.976c0.152-0.439,0.454-0.789,0.905-1.054c0.451-0.264,0.999-0.396,1.642-0.396
			c0.524,0,0.994,0.092,1.408,0.275c0.414,0.184,0.724,0.407,0.929,0.672c0.205,0.264,0.344,0.561,0.417,0.893
			C95.38,291.238,95.416,291.767,95.416,292.492z M93.026,291.688c0-0.509-0.025-0.827-0.074-0.955
			c-0.05-0.129-0.165-0.192-0.346-0.192c-0.178,0-0.295,0.067-0.352,0.204c-0.057,0.136-0.086,0.45-0.086,0.943v4.674
			c0,0.556,0.027,0.892,0.08,1.006c0.053,0.114,0.168,0.171,0.346,0.171c0.177,0,0.293-0.066,0.349-0.201
			c0.055-0.134,0.083-0.436,0.083-0.904V291.688z"/>
	</g>
	<g>
		<path d="M120.16,292.492v3.194c0,0.726-0.04,1.255-0.118,1.586c-0.079,0.331-0.243,0.641-0.491,0.929
			c-0.248,0.288-0.548,0.495-0.899,0.621c-0.351,0.126-0.743,0.189-1.177,0.189c-0.572,0-1.047-0.066-1.426-0.198
			c-0.378-0.132-0.68-0.338-0.905-0.618c-0.225-0.28-0.385-0.575-0.479-0.885c-0.095-0.31-0.142-0.802-0.142-1.476v-3.343
			c0-0.88,0.076-1.538,0.228-1.976c0.152-0.439,0.454-0.789,0.905-1.054c0.451-0.264,0.998-0.396,1.642-0.396
			c0.524,0,0.994,0.092,1.408,0.275c0.414,0.184,0.724,0.407,0.929,0.672c0.205,0.264,0.344,0.561,0.417,0.893
			C120.123,291.238,120.16,291.767,120.16,292.492z M117.77,291.688c0-0.509-0.025-0.827-0.074-0.955
			c-0.05-0.129-0.165-0.192-0.346-0.192c-0.178,0-0.295,0.067-0.352,0.204c-0.057,0.136-0.086,0.45-0.086,0.943v4.674
			c0,0.556,0.027,0.892,0.08,1.006c0.053,0.114,0.169,0.171,0.346,0.171c0.177,0,0.294-0.066,0.349-0.201
			c0.055-0.134,0.083-0.436,0.083-0.904V291.688z"/>
		<path d="M126.655,292.492v3.194c0,0.726-0.04,1.255-0.118,1.586c-0.079,0.331-0.243,0.641-0.491,0.929
			c-0.248,0.288-0.548,0.495-0.899,0.621s-0.743,0.189-1.177,0.189c-0.572,0-1.047-0.066-1.426-0.198
			c-0.378-0.132-0.68-0.338-0.905-0.618c-0.225-0.28-0.385-0.575-0.479-0.885c-0.095-0.31-0.142-0.802-0.142-1.476v-3.343
			c0-0.88,0.076-1.538,0.228-1.976c0.152-0.439,0.454-0.789,0.905-1.054c0.451-0.264,0.999-0.396,1.642-0.396
			c0.524,0,0.994,0.092,1.408,0.275c0.414,0.184,0.724,0.407,0.929,0.672c0.205,0.264,0.344,0.561,0.417,0.893
			C126.619,291.238,126.655,291.767,126.655,292.492z M124.265,291.688c0-0.509-0.025-0.827-0.074-0.955
			c-0.05-0.129-0.165-0.192-0.346-0.192c-0.178,0-0.295,0.067-0.352,0.204c-0.057,0.136-0.086,0.45-0.086,0.943v4.674
			c0,0.556,0.027,0.892,0.08,1.006c0.053,0.114,0.169,0.171,0.346,0.171c0.177,0,0.293-0.066,0.349-0.201
			c0.055-0.134,0.083-0.436,0.083-0.904V291.688z"/>
	</g>
	<g>
		<path style="fill:#FFFFFF;" d="M148.462,289.066l-2.833,9.945h-1.811l2.852-9.945H148.462z"/>
	</g>
	<g>
		<path style="fill:#FFFFFF;" d="M167.347,291.746h10.236v1.914h-10.236V291.746z M167.347,294.744h10.236v1.913h-10.236V294.744z"
			/>
	</g>
	<g>
		<path style="fill:#FFFFFF;" d="M175.823,266.544l-1.185,4.666l1.434,5.098h-2.89c-0.286-1.288-0.504-2.395-0.653-3.326
			c-0.198,1.162-0.412,2.271-0.645,3.326h-2.486l1.281-5.098l-1.281-4.666h2.486c0.401,1.996,0.617,3.129,0.645,3.399
			c0.288-1.666,0.506-2.799,0.653-3.399H175.823z"/>
	</g>
	<g>
		<path style="fill:#FFFFFF;" d="M167.924,224.505h3.583v-3.595h2.438v3.595h3.604v2.437h-3.604v3.574h-2.438v-3.574h-3.583V224.505
			z"/>
	</g>
	<g>
		<path style="fill:#FFFFFF;" d="M176.819,247.278v2.578h-8.708v-2.578H176.819z"/>
	</g>
	<g>
		<path d="M122.89,274.675v1.633h-5.259l0.001-1.366c1.558-2.548,2.484-4.125,2.778-4.73c0.293-0.605,0.44-1.077,0.44-1.417
			c0-0.26-0.044-0.454-0.133-0.582c-0.089-0.129-0.224-0.192-0.406-0.192c-0.182,0-0.317,0.07-0.406,0.213
			c-0.089,0.142-0.133,0.424-0.133,0.846v0.911h-2.142v-0.349c0-0.537,0.028-0.96,0.083-1.27s0.191-0.614,0.408-0.914
			c0.217-0.3,0.499-0.526,0.846-0.68c0.347-0.154,0.763-0.232,1.249-0.232c0.95,0,1.67,0.236,2.156,0.707
			c0.487,0.472,0.731,1.068,0.731,1.79c0,0.548-0.137,1.128-0.412,1.739c-0.274,0.611-1.082,1.909-2.422,3.893H122.89z"/>
	</g>
	<g>
		<path d="M148.66,270.88c0.363,0.122,0.633,0.322,0.811,0.601c0.178,0.278,0.266,0.931,0.266,1.956c0,0.762-0.086,1.353-0.26,1.773
			c-0.173,0.42-0.473,0.739-0.899,0.958c-0.426,0.22-0.972,0.329-1.639,0.329c-0.757,0-1.352-0.127-1.784-0.382
			c-0.432-0.254-0.716-0.565-0.852-0.935c-0.136-0.369-0.204-1.009-0.204-1.92v-0.757h2.39v1.556c0,0.414,0.024,0.678,0.074,0.79
			s0.159,0.168,0.329,0.168c0.185,0,0.308-0.07,0.367-0.213c0.059-0.142,0.089-0.513,0.089-1.112v-0.662
			c0-0.367-0.042-0.635-0.124-0.805c-0.083-0.17-0.205-0.281-0.367-0.334c-0.162-0.054-0.475-0.084-0.94-0.092v-1.391
			c0.568,0,0.918-0.022,1.053-0.065c0.134-0.044,0.231-0.139,0.29-0.284c0.059-0.147,0.089-0.375,0.089-0.687v-0.532
			c0-0.335-0.035-0.557-0.104-0.663c-0.069-0.106-0.177-0.159-0.323-0.159c-0.165,0-0.279,0.056-0.34,0.168
			c-0.061,0.113-0.092,0.353-0.092,0.719v0.787h-2.39v-0.816c0-0.915,0.209-1.533,0.627-1.855c0.418-0.321,1.082-0.482,1.994-0.482
			c1.14,0,1.913,0.223,2.319,0.668c0.406,0.445,0.609,1.064,0.609,1.857c0,0.536-0.073,0.924-0.219,1.162
			C149.283,270.465,149.027,270.683,148.66,270.88z"/>
	</g>
	<g>
		<path d="M122.956,243.98v1.532h-2.964v1.627c0.371-0.438,0.848-0.656,1.432-0.656c0.658,0,1.156,0.185,1.494,0.553
			c0.337,0.369,0.506,1.078,0.506,2.127v1.366c0,0.679-0.033,1.177-0.098,1.494c-0.065,0.317-0.204,0.611-0.417,0.882
			c-0.213,0.27-0.51,0.477-0.891,0.621c-0.38,0.144-0.845,0.216-1.393,0.216c-0.615,0-1.158-0.107-1.627-0.322
			c-0.469-0.215-0.803-0.536-1-0.962c-0.197-0.426-0.295-1.084-0.295-1.975v-0.521h2.39v0.598c0,0.619,0.022,1.059,0.066,1.319
			c0.043,0.26,0.193,0.39,0.45,0.39c0.118,0,0.214-0.037,0.287-0.112c0.073-0.074,0.112-0.155,0.119-0.242
			c0.006-0.087,0.013-0.464,0.021-1.13v-1.899c0-0.358-0.038-0.604-0.112-0.733c-0.075-0.13-0.199-0.195-0.373-0.195
			c-0.11,0-0.203,0.033-0.278,0.101c-0.075,0.067-0.124,0.139-0.145,0.216c-0.021,0.077-0.033,0.256-0.033,0.535h-2.366l0.101-4.827
			H122.956z"/>
	</g>
	<g>
		<path d="M129.773,168.961v-4.518l0.645-1.721c0.574,0.143,0.932,0.502,1.076,1.076v6.023l-0.43,0.43L129.773,168.961z
			 M131.063,170.682l0.43,0.43v6.023c-0.144,0.573-0.502,0.932-1.076,1.075l-0.645-1.721v-4.518L131.063,170.682z"/>
		<path d="M138.591,178.21h-1.721v-1.721h1.721V178.21z"/>
		<path d="M145.689,164.229v4.732l-1.29,1.29l-0.43-0.43v-6.238L145.689,164.229z M151.282,169.607l0.86,0.86l-0.86,0.86h-5.593
			l-0.86-0.86l0.86-0.86H151.282z M151.282,168.961v-4.518l0.645-1.721c0.574,0.143,0.932,0.502,1.076,1.076v6.023l-0.43,0.43
			L151.282,168.961z M152.573,170.682l0.43,0.43v6.023c-0.144,0.573-0.502,0.932-1.076,1.075l-0.645-1.721v-4.518L152.573,170.682z"
			/>
		<path d="M154.724,176.704v-5.593l0.43-0.43l1.291,1.29v4.087L154.724,176.704z M162.898,178.21h-7.098
			c-0.574-0.144-0.933-0.502-1.076-1.075l1.721-0.645h5.808L162.898,178.21z M161.607,164.443h-5.141l-1.721-0.645
			c0.143-0.574,0.502-0.933,1.076-1.076h6.431L161.607,164.443z M162.037,169.607l0.86,0.86l-0.86,0.86h-5.593l-0.86-0.86l0.86-0.86
			H162.037z M162.037,168.961v-4.518l0.645-1.721c0.574,0.143,0.932,0.502,1.076,1.076v6.023l-0.43,0.43L162.037,168.961z"/>
		<path d="M167.199,164.874v4.087l-1.29,1.29l-0.43-0.43v-5.593L167.199,164.874z M173.007,178.21h-6.453
			c-0.574-0.144-0.933-0.502-1.076-1.075l1.721-0.645h5.163L173.007,178.21z M173.007,164.443h-5.786l-1.721-0.645
			c0.143-0.574,0.502-0.933,1.076-1.076h7.077L173.007,164.443z M172.792,169.607l0.86,0.86l-0.86,0.86h-5.593l-0.86-0.86l0.86-0.86
			H172.792z M174.083,170.682l0.43,0.43v6.023c-0.143,0.573-0.502,0.932-1.076,1.075l-0.645-1.721v-4.518L174.083,170.682z"/>
	</g>
	<g>
		<path d="M149.432,246.523h-2.39c0-0.445-0.005-0.727-0.015-0.843c-0.01-0.116-0.058-0.214-0.142-0.293
			c-0.085-0.079-0.2-0.118-0.346-0.118c-0.122,0-0.223,0.037-0.302,0.112c-0.079,0.075-0.124,0.172-0.136,0.29
			c-0.012,0.118-0.018,0.356-0.018,0.716v1.526c0.122-0.257,0.302-0.449,0.539-0.577c0.236-0.128,0.528-0.192,0.876-0.192
			c0.438,0,0.824,0.118,1.16,0.355c0.335,0.236,0.548,0.52,0.639,0.852c0.091,0.331,0.136,0.779,0.136,1.343v0.764
			c0,0.67-0.026,1.169-0.077,1.496c-0.051,0.328-0.188,0.63-0.411,0.908c-0.223,0.278-0.528,0.494-0.917,0.648
			c-0.388,0.153-0.841,0.23-1.357,0.23c-0.643,0-1.169-0.089-1.58-0.267c-0.41-0.178-0.727-0.433-0.95-0.766
			c-0.223-0.334-0.353-0.684-0.391-1.051c-0.037-0.366-0.056-1.078-0.056-2.136v-1.325c0-1.14,0.017-1.901,0.05-2.286
			c0.034-0.385,0.171-0.748,0.411-1.092c0.241-0.343,0.569-0.601,0.985-0.771c0.416-0.172,0.896-0.258,1.44-0.258
			c0.67,0,1.221,0.108,1.65,0.325c0.43,0.218,0.738,0.523,0.923,0.917C149.339,245.427,149.432,245.924,149.432,246.523z
			 M147.042,249.511c0-0.339-0.038-0.571-0.112-0.697c-0.075-0.127-0.197-0.19-0.367-0.19c-0.166,0-0.287,0.06-0.364,0.18
			c-0.077,0.121-0.115,0.357-0.115,0.707v1.733c0,0.423,0.037,0.698,0.109,0.828c0.073,0.131,0.194,0.195,0.364,0.195
			c0.102,0,0.209-0.05,0.32-0.15c0.11-0.101,0.166-0.372,0.166-0.814V249.511z"/>
	</g>
</g>
<g>
	<path style="fill:#FBBCA0;" d="M109.262,281.221c0,4.174,3.383,7.558,7.557,7.558h2.268c4.174,0,7.557-3.384,7.557-7.558v-62.222
		c0-4.174-1.007-10.705-7.557-10.705h-2.268c-4.174,0-6.549,6.026-6.549,10.202L109.262,281.221z"/>
	<path style="fill:#FBBCA0;" d="M83.239,296.174c2.093,4.839,5.477,8.223,9.65,8.223h2.267c4.175,0,7.557-3.384,7.557-7.558V259.24
		c0-4.173-1.008-10.704-7.557-10.704h-3.727c-4.884,0-6.948,4.204-7.183,9.537L83.239,296.174z"/>
	<path style="fill:#FBBCA0;" d="M61.148,306.361c1.008,3.72,4.391,7.104,8.564,7.104h2.269c4.172,0,7.556-3.384,8.991-7.104v-37.605
		c0-4.09-1.032-11.159-8.991-11.159h-2.269c-6.073,1.085-6.549,6.026-7.556,10.655L61.148,306.361z"/>
	<path style="fill:#FBBCA0;" d="M41.277,306.361l0.636-15.392c0-4.175,2.374-11.445,6.549-11.445h2.267
		c4.535-0.074,6.512,3.715,7.338,9.255l1.443,17.583H41.277z"/>
	<path style="fill:#FBBCA0;" d="M113.573,404.714H62.156v-23.738c-30.983-22.672-20.589-78.055-20.589-78.055l14.606,0.692
		l3.715-1.233l2.195-27.768h18.89l2.091,23.737l1.005-34.385l18.645-2.808l2.543,36.689l4.882-71.102h16.506v89.239
		c0,0,5.794-24.118,30.985-29.157c0,0,10.077,3.212,5.039,11.523l-13.246,21.161c0,0-10.432,50.382-35.625,62.474L113.573,404.714z"
		/>
</g>
<g>
	<path style="fill:#FAB58F;" d="M92.354,410.932"/>
	<rect x="49.593" y="380.989" style="fill:#A2CECD;" width="85.52" height="10.303"/>
	<rect x="44.689" y="391.292" style="fill:#003149;" width="95.329" height="33.908"/>
</g>
</svg>
